<svg width="102" height="98" viewBox="0 0 102 98" fill="none" xmlns="http://www.w3.org/2000/svg">
<g clip-path="url(#clip0_75_5)">
<path d="M19.9972 46.8125C23.9343 46.8125 27.783 47.98 31.0566 50.1673C34.3301 52.3546 36.8816 55.4636 38.3882 59.101C39.8949 62.7383 40.2891 66.7408 39.521 70.6023C38.7529 74.4637 36.857 78.0107 34.0731 80.7946C31.2892 83.5785 27.7422 85.4744 23.8808 86.2425C20.0193 87.0106 16.0168 86.6164 12.3795 85.1097C8.74207 83.6031 5.63313 81.0516 3.44581 77.7781C1.25848 74.5045 0.091 70.6558 0.091 66.7188L0 63.875C0 53.3161 4.19452 43.1896 11.6608 35.7233C19.1271 28.257 29.2536 24.0625 39.8125 24.0625V35.4375C36.0764 35.4275 32.3754 36.1582 28.9234 37.5874C25.4714 39.0166 22.3371 41.1159 19.7015 43.764C18.677 44.7863 17.732 45.8852 16.8748 47.0514C17.8948 46.8883 18.9337 46.8068 19.9916 46.8068L19.9972 46.8125ZM71.1847 46.8125C75.1218 46.8125 78.9705 47.98 82.2441 50.1673C85.5176 52.3546 88.0691 55.4636 89.5757 59.101C91.0824 62.7383 91.4766 66.7408 90.7085 70.6023C89.9404 74.4637 88.0445 78.0107 85.2606 80.7946C82.4767 83.5785 78.9297 85.4744 75.0683 86.2425C71.2068 87.0106 67.2044 86.6164 63.567 85.1097C59.9296 83.6031 56.8206 81.0516 54.6333 77.7781C52.446 74.5045 51.2785 70.6558 51.2785 66.7188L51.1875 63.875C51.1875 53.3161 55.382 43.1896 62.8483 35.7233C70.3146 28.257 80.4411 24.0625 91 24.0625V35.4375C87.2639 35.4275 83.5629 36.1582 80.1109 37.5874C76.659 39.0166 73.5246 41.1159 70.889 43.764C69.8645 44.7863 68.9195 45.8852 68.0623 47.0514C69.0823 46.8883 70.1231 46.8125 71.1847 46.8125Z" fill="#FFFBB6"/>
</g>
<g clip-path="url(#clip1_75_5)">
<path d="M11.5908 59.7031L11.5 56.8594C11.5041 46.4387 15.6458 36.446 23.0146 29.0771C30.2692 21.8226 40.067 17.6985 50.3125 17.5684V27.9414C46.681 27.9949 43.0908 28.7346 39.7324 30.125C36.2194 31.5795 33.0289 33.7162 30.3467 36.4111C29.3047 37.451 28.3436 38.5688 27.4717 39.7549L26.75 40.7373L27.9541 40.5449C28.8815 40.3967 29.8258 40.3194 30.7871 40.3096L30.79 40.3125H30.9971C34.8351 40.3125 38.5871 41.4508 41.7783 43.583C44.9696 45.7154 47.4579 48.746 48.9268 52.292C50.3956 55.838 50.7791 59.7404 50.0303 63.5049C49.2815 67.2692 47.4337 70.7274 44.7197 73.4414C42.0057 76.1554 38.5476 78.0032 34.7832 78.752C31.0188 79.5007 27.1163 79.1163 23.5703 77.6475C20.0245 76.1786 16.9936 73.6912 14.8613 70.5C12.7291 67.3087 11.5908 63.5568 11.5908 59.7188V59.7031ZM62.7783 59.7031L62.6875 56.8594C62.6916 46.4387 66.8333 36.446 74.2021 29.0771C81.4567 21.8226 91.2545 17.6985 101.5 17.5684V27.9414C97.8685 27.9949 94.2783 28.7346 90.9199 30.125C87.4069 31.5795 84.2164 33.7162 81.5342 36.4111C80.4922 37.451 79.5311 38.5688 78.6592 39.7549L77.9375 40.7373L79.1416 40.5449C80.1328 40.3865 81.1469 40.3125 82.1846 40.3125C86.0226 40.3125 89.7746 41.4508 92.9658 43.583C96.1571 45.7154 98.6454 48.746 100.114 52.292C101.583 55.838 101.967 59.7404 101.218 63.5049C100.469 67.2692 98.6212 70.7274 95.9072 73.4414C93.1932 76.1554 89.7351 78.0032 85.9707 78.752C82.2064 79.5007 78.3047 79.1162 74.7588 77.6475C71.2128 76.1786 68.1812 73.6913 66.0488 70.5C63.9166 67.3087 62.7783 63.5568 62.7783 59.7188V59.7031Z" fill="#C6FFC0" stroke="black"/>
</g>
<defs>
<clipPath id="clip0_75_5">
<rect width="91" height="91" fill="white" transform="translate(0 7)"/>
</clipPath>
<clipPath id="clip1_75_5">
<rect width="91" height="91" fill="white" transform="translate(11)"/>
</clipPath>
</defs>
</svg>
